<svg id="elr8MJWHI3F1" xmlns="http://www.w3.org/2000/svg" xmlns:xlink="http://www.w3.org/1999/xlink" viewBox="0 0 300 300" shape-rendering="geometricPrecision" text-rendering="geometricPrecision"><polygon points="0,-92.208259 79.854695,-46.104129 79.854695,46.10413 0,92.20826 -79.854695,46.10413 -79.854695,-46.104129 0,-92.208259" transform="translate(150 150)" fill="#5a5c60" stroke-width="0"/><g><polygon points="0,-92.208259 79.854695,-46.104129 79.854695,46.10413 0,92.20826 -79.854695,46.10413 -79.854695,-46.104129 0,-92.208259" transform="matrix(.837012 0 0 0.799233 150 150)" fill="#fbfbfb" stroke-width="0"/><path d="M83.160662,113.152059L150,150l66.839338-36.847942L150,76.304116L83.160662,113.152059Z" transform="translate(0 0.000001)" fill="rgba(0,0,0,0.06)" stroke="#3f5787" stroke-width="0"/><path d="M150,223.695884l66.839338-36.847942v-73.695882L150,150.000001v73.695883Z" transform="translate(0-.000001)" fill="#cfcfcf" stroke="#3f5787" stroke-width="0"/></g><path d="M212.140076,209.287965l.006399-18.078806-51.980218,28.723906q.033534,19.456094-.019782,19.456094t51.993601-30.101194Z" transform="translate(.000001-2.959159)" fill="#cfcfcf" stroke="#3f5787" stroke-width="0"/><polygon points="-29.659695,-92.208259 20.535305,-63.958259 20.535305,-7.458259 -29.659695,20.791741 -79.854695,-7.458259 -79.854695,-63.958259 -29.659695,-92.208259" transform="translate(179.854695 186.208259)" fill="#5a5c60" stroke-width="0"/><g transform="matrix(.544233 0 0 0.554646 68.365053 66.803103)"><polygon points="0,-92.208259 79.854695,-46.104129 79.854695,46.10413 0,92.20826 -79.854695,46.10413 -79.854695,-46.104129 0,-92.208259" transform="matrix(.837012 0 0 0.799233 150 150)" fill="#fbfbfb" stroke-width="0"/><path d="M83.160662,113.152059L150,150l66.839338-36.847942L150,76.304116L83.160662,113.152059Z" transform="translate(0 0.000001)" fill="rgba(0,0,0,0.06)" stroke="#3f5787" stroke-width="0"/><path d="M150,223.695884l66.839338-36.847942v-73.695882L150,150.000001v73.695883Z" transform="translate(0-.000001)" fill="#cfcfcf" stroke="#3f5787" stroke-width="0"/></g><rect width="20" height="36.201373" rx="0" ry="0" transform="matrix(.871681-.500695 0.499984 0.870444 166.119078 190.89555)" fill="#5a5c60" stroke-width="0"/></svg>
